<?xml version="1.0" encoding="UTF-8" standalone="no"?>
<!DOCTYPE svg PUBLIC "-//W3C//DTD SVG 1.1//EN" "http://www.w3.org/Graphics/SVG/1.1/DTD/svg11.dtd">
<svg version="1.1" xmlns="http://www.w3.org/2000/svg" xmlns:xlink="http://www.w3.org/1999/xlink" preserveAspectRatio="xMidYMid meet" viewBox="2.4030406307976904 7.114647357001289 46.21338160749679 37.77070528599742" width="42.21" height="33.77"><defs><path d="M5.51 31.33C4.35 31.33 3.4 32.28 3.4 33.44C3.4 34.08 3.4 39.14 3.4 39.77C3.4 40.94 4.35 41.89 5.51 41.89C6.15 41.89 11.21 41.89 11.85 41.89C13.01 41.89 13.96 40.94 13.96 39.77C13.96 39.14 13.96 34.08 13.96 33.44C13.96 32.28 13.01 31.33 11.85 31.33C10.58 31.33 6.15 31.33 5.51 31.33ZM22.93 26.06L22.93 29.22L26.09 29.22L26.09 26.06L38.76 26.06L38.76 29.22L41.92 29.22C41.92 26.94 41.92 25.68 41.92 25.42C41.92 24.03 40.79 22.89 39.39 22.89C38.5 22.89 34.07 22.89 26.09 22.89L26.09 18.67C27.68 18.67 28.56 18.67 28.73 18.67C29.9 18.67 30.84 17.72 30.84 16.56C30.84 15.92 30.84 10.86 30.84 10.23C30.84 9.06 29.9 8.11 28.73 8.11C27.89 8.11 21.13 8.11 20.29 8.11C19.12 8.11 18.18 9.06 18.18 10.23C18.18 10.86 18.18 15.92 18.18 16.56C18.18 17.72 19.12 18.67 20.29 18.67C20.46 18.67 21.34 18.67 22.93 18.67L22.93 22.89C14.95 22.89 10.52 22.89 9.63 22.89C8.23 22.89 7.1 24.03 7.1 25.42C7.1 25.68 7.1 26.94 7.1 29.22L10.26 29.22L10.26 26.06L22.93 26.06ZM21.34 31.33C20.18 31.33 19.23 32.28 19.23 33.44C19.23 34.08 19.23 39.14 19.23 39.77C19.23 40.94 20.18 41.89 21.34 41.89C21.98 41.89 27.04 41.89 27.68 41.89C28.84 41.89 29.79 40.94 29.79 39.77C29.79 39.14 29.79 34.08 29.79 33.44C29.79 32.28 28.84 31.33 27.68 31.33C26.41 31.33 21.98 31.33 21.34 31.33ZM37.17 31.33C36.01 31.33 35.06 32.28 35.06 33.44C35.06 34.08 35.06 39.14 35.06 39.77C35.06 40.94 36.01 41.89 37.17 41.89C37.81 41.89 42.87 41.89 43.51 41.89C44.67 41.89 45.62 40.94 45.62 39.77C45.62 39.14 45.62 34.08 45.62 33.44C45.62 32.28 44.67 31.33 43.51 31.33C42.24 31.33 37.81 31.33 37.17 31.33Z" id="a2qWMSkY6"></path></defs><g><g><use xlink:href="#a2qWMSkY6" opacity="1" fill="#ffffff" fill-opacity="1"></use><g><use xlink:href="#a2qWMSkY6" opacity="1" fill-opacity="0" stroke="#000000" stroke-width="1" stroke-opacity="0"></use></g></g></g></svg>