<?xml version="1.0" encoding="UTF-8" standalone="no"?>
<!DOCTYPE svg PUBLIC "-//W3C//DTD SVG 1.1//EN" "http://www.w3.org/Graphics/SVG/1.1/DTD/svg11.dtd">
<svg version="1.1" xmlns="http://www.w3.org/2000/svg" xmlns:xlink="http://www.w3.org/1999/xlink" preserveAspectRatio="xMidYMid meet" viewBox="2.975159129485916 9.270024654806996 44.003125 35.997593138317626" width="40" height="32"><defs><path d="M17.6 41.13C17.2 41.02 16.97 40.6 17.08 40.2C17.94 37.26 24.76 13.75 25.61 10.81C25.73 10.41 26.15 10.19 26.55 10.3C26.93 10.41 29.98 11.29 30.36 11.41C30.76 11.52 30.98 11.94 30.87 12.34C30.02 15.28 23.19 38.79 22.34 41.72C22.22 42.12 21.81 42.36 21.41 42.24C20.65 42.02 17.98 41.24 17.6 41.13ZM17 32.32C17.29 32.02 17.27 31.53 16.95 31.25C16.57 30.92 14.69 29.26 11.29 26.27C14.69 23.28 16.57 21.62 16.95 21.29C17.27 21.01 17.3 20.52 17 20.21C16.73 19.92 14.55 17.6 14.28 17.31C14 17.01 13.53 16.99 13.22 17.28C12.32 18.12 5.11 24.87 4.21 25.72C3.9 26.01 3.9 26.52 4.21 26.81C5.11 27.66 12.32 34.41 13.22 35.26C13.53 35.54 14 35.53 14.28 35.22C14.83 34.64 16.73 32.61 17 32.32ZM43.74 26.82C44.06 26.52 44.06 26.02 43.74 25.72C42.84 24.88 35.63 18.12 34.73 17.27C34.43 16.99 33.96 17.01 33.67 17.31C33.4 17.6 31.22 19.92 30.95 20.21C30.66 20.51 30.68 21 31 21.28C31.38 21.61 33.27 23.28 36.66 26.27C33.27 29.26 31.38 30.92 31 31.25C30.68 31.53 30.66 32.02 30.95 32.32C31.22 32.61 33.4 34.93 33.67 35.22C33.95 35.53 34.43 35.54 34.73 35.26C36.53 33.57 42.84 27.66 43.74 26.82Z" id="k2ux8bO4Iq"></path></defs><g><g><use xlink:href="#k2ux8bO4Iq" opacity="1" fill="#ffffff" fill-opacity="1"></use><g><use xlink:href="#k2ux8bO4Iq" opacity="1" fill-opacity="0" stroke="#000000" stroke-width="1" stroke-opacity="0"></use></g></g></g></svg>