<?xml version="1.0" encoding="UTF-8" standalone="no"?>
<!DOCTYPE svg PUBLIC "-//W3C//DTD SVG 1.1//EN" "http://www.w3.org/Graphics/SVG/1.1/DTD/svg11.dtd">
<svg version="1.1" xmlns="http://www.w3.org/2000/svg" xmlns:xlink="http://www.w3.org/1999/xlink" preserveAspectRatio="xMidYMid meet" viewBox="3.267949311512126 3.6142923807426683 46.27035484043089 46.27183778828828" width="42.27" height="42.27"><defs><path d="M35.18 37.1C35.48 37.62 36.98 40.21 39.67 44.88C42.35 46.02 43.83 46.65 44.13 46.78C44.94 47.12 45.85 46.6 45.96 45.72C46 45.4 46.19 43.8 46.54 40.91L42 33.05C39.1 35.1 36.83 36.45 35.18 37.1ZM45.01 23.39C44.78 23.27 42.92 22.24 42.69 22.11C42.07 21.77 41.32 21.99 40.93 22.58C37.54 27.83 31.7 31.03 25.4 31.03C23.43 31.03 21.5 30.68 19.67 30.08C20.23 29.12 24.68 21.41 25.23 20.45C25.29 20.45 25.34 20.47 25.4 20.47C25.46 20.47 25.51 20.45 25.57 20.45C25.99 21.18 29.37 27.02 29.79 27.76C32.37 27.02 34.71 25.63 36.61 23.72C36.18 22.98 32.76 17.05 32.33 16.31C32.95 15.18 33.33 13.91 33.33 12.54C33.33 8.16 29.78 4.61 25.4 4.61C21.03 4.61 17.48 8.16 17.48 12.54C17.48 13.91 17.86 15.18 18.47 16.31C17.91 17.29 13.4 25.1 12.83 26.08C11.8 25.12 10.86 24.05 10.05 22.86C9.66 22.27 8.9 22.06 8.29 22.42C8.06 22.55 6.23 23.61 6 23.74C5.35 24.12 5.12 24.97 5.53 25.6C6.82 27.55 8.4 29.25 10.15 30.72C9.76 31.4 7.8 34.8 4.27 40.91C4.62 43.8 4.81 45.4 4.85 45.72C4.95 46.6 5.87 47.12 6.68 46.78C6.97 46.65 8.46 46.02 11.13 44.88C14.64 38.8 16.59 35.43 16.98 34.75C19.64 35.76 22.48 36.32 25.4 36.32C33.58 36.32 41.16 32.11 45.51 25.24C45.91 24.61 45.66 23.76 45.01 23.39ZM28.05 12.54C28.05 14 26.86 15.18 25.4 15.18C23.94 15.18 22.76 14 22.76 12.54C22.76 11.08 23.94 9.9 25.4 9.9C26.86 9.9 28.05 11.08 28.05 12.54Z" id="delehO6zq"></path></defs><g><g><use xlink:href="#delehO6zq" opacity="1" fill="#ffffff" fill-opacity="1"></use><g><use xlink:href="#delehO6zq" opacity="1" fill-opacity="0" stroke="#000000" stroke-width="1" stroke-opacity="0"></use></g></g></g></svg>