<?xml version="1.0" encoding="UTF-8" standalone="no"?>
<!DOCTYPE svg PUBLIC "-//W3C//DTD SVG 1.1//EN" "http://www.w3.org/Graphics/SVG/1.1/DTD/svg11.dtd">
<svg version="1.1" xmlns="http://www.w3.org/2000/svg" xmlns:xlink="http://www.w3.org/1999/xlink" preserveAspectRatio="xMidYMid meet" viewBox="9.357940634486091 3.7968090284599896 20.111355781559954 32.40638194308002" width="20.11" height="32.41"><defs><path d="M25.47 15.75L26.58 16.36L27.55 17.18L28.35 18.16L28.95 19.3L29.34 20.55L29.47 21.89L29.45 22.11L29.47 22.11L29.43 36.2L26.66 36.2L26.29 36.16L25.96 36.04L25.66 35.85L25.42 35.6L25.23 35.31L25.11 34.97L25.07 34.61L25.09 28.16L24.24 28.43L22.92 28.56L21.6 28.43L20.37 28.04L19.25 27.42L18.28 26.61L17.48 25.62L16.88 24.49L16.5 23.24L16.36 21.89L16.5 20.55L16.88 19.3L17.48 18.16L18.28 17.18L19.25 16.36L20.37 15.75L21.6 15.36L22.92 15.22L24.24 15.36L25.47 15.75ZM21.36 20.32L20.9 21.03L20.73 21.89L20.9 22.76L21.36 23.46L22.04 23.94L22.87 24.12L23.7 23.94L24.38 23.46L24.84 22.76L25.01 21.89L24.84 21.03L24.38 20.32L23.7 19.84L22.87 19.67L22.04 19.84L21.36 20.32Z" id="bhG8RS4K3"></path><path d="M13.71 3.8C13.71 14.18 13.71 20.67 13.71 23.27C13.71 24.58 12.64 25.64 11.33 25.64C11.07 25.64 10.41 25.64 9.36 25.64C9.36 15.61 9.36 9.34 9.36 6.83C9.36 5.15 10.72 3.8 12.39 3.8C12.57 3.8 13 3.8 13.71 3.8Z" id="ehcYVNE5N"></path></defs><g><g><g><use xlink:href="#bhG8RS4K3" opacity="1" fill="#ffffff" fill-opacity="1"></use></g><g><use xlink:href="#ehcYVNE5N" opacity="1" fill="#ffffff" fill-opacity="1"></use></g></g></g></svg>