<?xml version="1.0" encoding="UTF-8" standalone="no"?>
<!DOCTYPE svg PUBLIC "-//W3C//DTD SVG 1.1//EN" "http://www.w3.org/Graphics/SVG/1.1/DTD/svg11.dtd">
<svg version="1.1" xmlns="http://www.w3.org/2000/svg" xmlns:xlink="http://www.w3.org/1999/xlink" preserveAspectRatio="xMidYMid meet" viewBox="3.498935071224068 5.469211682371886 48.03025323199877 43.13796353381939" width="44.03" height="39.14"><defs><path d="M37.93 30.95C33.35 30.95 37.52 17.48 37.52 17.48C37.52 17.48 22.52 23.59 22.52 17.22C22.52 14.49 25.29 13.69 25.29 10.65C25.29 7.94 23.14 6.47 20.59 6.47C17.94 6.47 15.52 7.91 15.52 10.78C15.52 13.94 17.94 15.31 17.94 17.03C17.94 22.35 4.5 19.22 4.5 19.22C4.5 21.76 4.5 42.14 4.5 44.69C4.5 44.69 18.15 47.83 18.15 42.5C18.15 40.78 15.1 39.43 15.1 36.27C15.1 33.41 17.33 31.96 19.96 31.96C22.53 31.96 24.68 33.43 24.68 36.15C24.68 39.18 21.91 39.98 21.91 42.72C21.91 47.37 31.82 44.69 35.76 44.69C35.76 44.69 33.1 35.51 37.73 35.51C40.48 35.51 41.28 38.27 44.33 38.27C47.05 38.27 48.53 36.13 48.53 33.56C48.53 30.95 47.08 28.53 44.21 28.53C41.03 28.53 39.66 30.95 37.93 30.95Z" id="b1jTTTz4rI"></path></defs><g><g><use xlink:href="#b1jTTTz4rI" opacity="1" fill="#ffffff" fill-opacity="1"></use><g><use xlink:href="#b1jTTTz4rI" opacity="1" fill-opacity="0" stroke="#000000" stroke-width="1" stroke-opacity="0"></use></g></g></g></svg>